<?xml version="1.0" encoding="utf-8"?>
<!-- Generator: Adobe Illustrator 27.5.0, SVG Export Plug-In . SVG Version: 6.00 Build 0)  -->
<svg version="1.1" id="Layer_1" xmlns="http://www.w3.org/2000/svg" xmlns:xlink="http://www.w3.org/1999/xlink" x="0px" y="0px"
	 viewBox="0 0 800 800" style="enable-background:new 0 0 800 800;" xml:space="preserve">
<style type="text/css">
	.st0{fill-rule:evenodd;clip-rule:evenodd;fill:#850E35;}
</style>
<path class="st0" d="M210,519.2c-50.8-43.6-87-93.5-104-119.2c17-25.8,53.3-75.6,104-119.2c52.4-45,117.1-80.8,190-80.8
	c72.8,0,137.5,35.7,190,80.8c50.8,43.6,87,93.5,104.1,119.2c-17,25.8-53.3,75.6-104.1,119.2c-52.4,45-117.1,80.8-190,80.8
	C327.2,600,262.5,564.3,210,519.2z M400,133.3c-95.1,0-174.8,46.5-233.4,96.9c-58.8,50.6-99.7,107.7-117.8,135.5
	c-13.7,21-13.7,47.7,0,68.7c18.1,27.7,59,84.9,117.8,135.5c58.6,50.4,138.3,96.9,233.4,96.9s174.8-46.5,233.4-96.9
	c58.8-50.6,99.7-107.7,117.8-135.5c13.7-21,13.7-47.7,0-68.7c-18.1-27.7-59-84.9-117.8-135.5C574.8,179.8,495.1,133.3,400,133.3z
	 M333.3,400c0-36.8,29.9-66.7,66.7-66.7s66.7,29.8,66.7,66.7s-29.8,66.7-66.7,66.7C363.2,466.7,333.3,436.8,333.3,400z M400,266.7
	c-73.6,0-133.3,59.7-133.3,133.3S326.4,533.3,400,533.3S533.3,473.6,533.3,400S473.6,266.7,400,266.7z"/>
</svg>
