<?xml version="1.0" encoding="utf-8"?>
<!-- Generator: Adobe Illustrator 27.5.0, SVG Export Plug-In . SVG Version: 6.00 Build 0)  -->
<svg version="1.1" id="Layer_1" xmlns="http://www.w3.org/2000/svg" xmlns:xlink="http://www.w3.org/1999/xlink" x="0px" y="0px"
	 viewBox="0 0 800 800" style="enable-background:new 0 0 800 800;" xml:space="preserve">
<style type="text/css">
	.st0{fill-rule:evenodd;clip-rule:evenodd;fill:#850E35;}
</style>
<path class="st0" d="M656.9,190.2c13-13,13-34.1,0-47.1s-34.1-13-47.1,0l-142,142c-19.9-11.7-43-18.5-67.7-18.5
	c-73.6,0-133.3,59.7-133.3,133.3c0,24.7,6.7,47.9,18.5,67.7l-142,142c-13,13-13,34.1,0,47.1s34.1,13,47.1,0l142-142
	c19.8,11.7,43,18.5,67.7,18.5c73.6,0,133.3-59.7,133.3-133.3c0-24.7-6.7-47.9-18.5-67.7L656.9,190.2z M417.3,335.6
	c-5.5-1.5-11.3-2.3-17.3-2.3c-36.8,0-66.7,29.8-66.7,66.7c0,6,0.8,11.8,2.3,17.3L417.3,335.6z M382.7,464.4l81.7-81.7
	c1.5,5.5,2.3,11.3,2.3,17.3c0,36.8-29.8,66.7-66.7,66.7C394,466.7,388.2,465.9,382.7,464.4z M525.5,160.7
	c-37.9-16.7-79.9-27.4-125.5-27.4c-95.1,0-174.8,46.5-233.4,96.9c-58.8,50.6-99.7,107.7-117.8,135.5c-13.7,21-13.7,47.7,0,68.7
	c15.3,23.4,46.8,67.8,91.6,111.5l47.1-47.1c-39-37.9-67.2-76.9-81.5-98.7c17-25.8,53.3-75.6,104-119.2c52.4-45,117.1-80.8,190-80.8
	c25.7,0,50.4,4.5,74,12.2L525.5,160.7z M400,600c-25.7,0-50.4-4.5-74-12.2l-51.5,51.5c37.9,16.7,79.9,27.4,125.5,27.4
	c95.1,0,174.8-46.5,233.4-96.9c58.8-50.6,99.7-107.7,117.8-135.5c13.7-21,13.7-47.7,0-68.7c-15.3-23.4-46.8-67.8-91.6-111.5
	l-47.1,47.1c39,37.9,67.2,76.9,81.5,98.7c-17,25.8-53.3,75.6-104.1,119.2C537.5,564.3,472.8,600,400,600z"/>
</svg>
